<svg xmlns="http://www.w3.org/2000/svg" width="666.667" height="666.667" preserveAspectRatio="xMidYMid meet" version="1.0" viewBox="0 0 500 500"><style>path{fill:#000}@media (prefers-color-scheme:dark){path{fill:#fff}}</style><g stroke="none"><path d="M2183 4975 c-571 -74 -1078 -331 -1483 -752 -295 -306 -508 -683 -610 -1078 -66 -254 -75 -334 -74 -635 0 -164 5 -307 12 -355 69 -446 258 -885 527 -1220 81 -102 265 -285 375 -374 388 -313 873 -509 1342 -541 396 -27 688 5 1008 110 241 79 514 222 726 381 136 101 392 358 492 494 256 346 422 761 475 1185 22 169 8 622 -22 770 -34 162 -58 249 -103 377 -283 810 -996 1430 -1846 1608 -216 45 -594 59 -819 30z m1442 -1730 l0 -270 -410 -5 -410 -5 -3 -550 c-3 -575 3 -690 36 -734 54 -73 148 -94 304 -68 51 9 94 14 96 13 2 -3 72 -499 72 -513 0 -4 -131 -43 -180 -53 -87 -19 -306 -24 -401 -11 -267 39 -473 196 -550 419 -54 154 -52 132 -58 837 l-6 660 -376 3 c-347 2 -377 4 -384 20 -3 9 -3 133 1 275 l7 257 1131 -2 1131 -3 0 -270z" transform="translate(0.000000,500.000000) scale(0.100000,-0.100000)"/></g></svg>