<svg xmlns="http://www.w3.org/2000/svg" width="933.333" height="933.333" preserveAspectRatio="xMidYMid meet" version="1.0" viewBox="0 0 700 700"><metadata>Created by potrace 1.14, written by Peter Selinger 2001-2017</metadata><g fill="#000" stroke="none"><path d="M3277 6984 c-1 -1 -44 -4 -95 -8 -83 -6 -130 -11 -262 -31 -30 -5 -151 -29 -200 -40 -157 -35 -388 -109 -559 -179 -704 -289 -1346 -864 -1715 -1536 -32 -58 -62 -112 -66 -120 -37 -64 -136 -296 -182 -430 -44 -126 -112 -383 -133 -500 -35 -196 -40 -265 -39 -620 0 -458 7 -536 81 -830 101 -408 274 -804 497 -1140 38 -58 73 -106 78 -108 4 -2 8 -8 8 -13 0 -11 89 -126 154 -199 93 -104 369 -371 462 -446 461 -370 1023 -626 1584 -720 25 -4 47 -8 50 -9 6 -1 136 -17 170 -21 213 -22 614 -22 813 2 140 16 171 21 312 50 320 67 670 200 960 364 22 13 60 34 85 48 25 14 85 52 134 84 49 32 91 58 93 58 15 0 229 178 332 275 231 219 395 400 505 558 132 189 295 481 357 640 11 29 27 66 34 82 23 49 87 239 123 360 36 124 71 288 97 455 30 196 25 763 -10 1042 -6 46 -13 89 -31 174 -24 123 -113 424 -153 519 -107 256 -147 341 -245 509 -101 175 -151 247 -276 406 -169 213 -388 430 -605 598 -88 67 -280 202 -289 202 -3 0 -24 13 -48 29 -86 58 -319 177 -473 241 -233 98 -553 189 -755 215 -25 4 -56 8 -70 10 -43 6 -142 15 -235 21 -82 6 -483 12 -488 8z m1768 -2063 l30 -1 0 -375 c0 -206 -2 -376 -5 -376 -9 -2 -248 -7 -699 -13 -238 -3 -436 -8 -439 -11 -9 -8 -8 -1458 0 -1590 9 -137 20 -176 64 -225 49 -54 126 -82 229 -83 74 -1 182 8 230 18 61 14 74 13 79 -3 6 -19 13 -66 21 -132 3 -25 7 -56 10 -70 10 -60 65 -465 65 -485 0 -19 -13 -25 -107 -53 -60 -17 -121 -33 -138 -36 -16 -4 -41 -9 -55 -12 -14 -3 -126 -8 -250 -9 -235 -4 -299 2 -435 44 -251 78 -464 254 -559 462 -61 136 -89 241 -101 374 -6 79 -14 547 -19 1288 -3 280 -6 511 -9 513 -2 2 -219 6 -481 9 -470 4 -550 8 -572 26 -12 10 -10 351 5 721 l1 26 1553 -3 c853 -2 1566 -4 1582 -4z" transform="translate(0.000000,700.000000) scale(0.100000,-0.100000)"/></g></svg>