<svg xmlns="http://www.w3.org/2000/svg" width="666.667" height="666.667" preserveAspectRatio="xMidYMid meet" version="1.0" viewBox="0 0 500 500"><metadata>Created by potrace 1.14, written by Peter Selinger 2001-2017</metadata><g fill="#000" stroke="none"><path d="M395 3308 c-4 -13 -45 -249 -45 -262 0 -3 108 -6 240 -6 132 0 240 -2 240 -4 0 -2 -47 -289 -105 -639 -58 -349 -105 -640 -105 -646 0 -7 53 -11 163 -11 l163 0 98 593 c54 325 103 618 108 649 l10 58 242 2 241 3 17 95 c9 52 19 114 23 138 l6 42 -646 0 c-507 0 -647 -3 -650 -12z" transform="translate(0.000000,500.000000) scale(0.100000,-0.100000)"/><path d="M1905 3308 c-2 -7 -62 -363 -133 -790 l-128 -778 166 0 167 0 54 325 54 325 337 0 c186 0 338 -3 338 -7 0 -5 -24 -151 -54 -325 l-53 -318 167 0 167 0 127 773 c70 424 130 780 133 790 4 16 -7 17 -163 15 l-168 -3 -43 -255 c-23 -140 -47 -285 -53 -322 l-12 -68 -339 0 -339 0 5 23 c3 12 25 146 50 297 25 151 48 287 51 303 l6 27 -167 0 c-123 0 -167 -3 -170 -12z" transform="translate(0.000000,500.000000) scale(0.100000,-0.100000)"/><path d="M3440 3311 c0 -11 254 -1431 271 -1519 l10 -52 216 2 215 3 399 780 c219 429 399 783 399 788 0 4 -81 7 -179 7 -133 0 -182 -3 -188 -12 -4 -7 -135 -276 -291 -598 -156 -321 -285 -586 -288 -589 -2 -2 -6 -2 -9 1 -4 4 -185 1165 -185 1188 0 6 -74 10 -185 10 -109 0 -185 -4 -185 -9z" transform="translate(0.000000,500.000000) scale(0.100000,-0.100000)"/></g></svg>